<svg width="1024" height="1024" viewBox="0 0 1024 1024" fill="none" xmlns="http://www.w3.org/2000/svg">
<path d="M826.915 94C846.316 105.201 856.016 110.801 861.247 118.855C865.847 125.939 868.087 134.299 867.645 142.735C867.143 152.325 861.542 162.025 850.341 181.426L570.906 665.422C567.716 670.946 566.122 673.708 564.143 676.152C562.387 678.323 560.407 680.303 558.238 682.061C555.795 684.04 553.034 685.637 547.512 688.829C545.328 690.092 543.217 691.31 541.18 692.485C540.303 692.996 539.366 693.539 538.365 694.118L475.44 730.496C467.557 735.053 463.616 737.331 460.382 736.992C457.562 736.697 455 735.218 453.334 732.923C451.424 730.292 451.426 725.74 451.431 716.635L451.473 643.951C451.474 642.794 451.475 641.711 451.479 640.696C451.478 638.344 451.478 635.908 451.48 633.385C451.483 627.007 451.486 623.817 451.979 620.712C452.417 617.955 453.142 615.25 454.143 612.644C455.27 609.708 456.865 606.946 460.054 601.422L739.49 117.426C750.691 98.0252 756.291 88.3247 764.345 83.0944C771.429 78.4937 779.789 76.2536 788.225 76.6957C797.815 77.1985 807.515 82.7992 826.915 94Z" fill="#D9D9D9" style="fill:#D9D9D9;fill:color(display-p3 0.8510 0.8510 0.8510);fill-opacity:1;"/>
</svg>
